<?xml version="1.0"?>
<svg width="640" height="480" xmlns="http://www.w3.org/2000/svg" xmlns:svg="http://www.w3.org/2000/svg" xmlns:xlink="http://www.w3.org/1999/xlink">
 <!-- Created with SVG-edit - http://svg-edit.googlecode.com/ -->
 <defs>
  <symbol viewBox="0 0 132.72 127.219" id="svg_342" xmlns:svg="http://www.w3.org/2000/svg" xmlns="http://www.w3.org/2000/svg" xmlns:xlink="http://www.w3.org/1999/xlink">
   <title>Firefox Logo</title>
   <desc>Firefox logo in SVG, authored by Jon Hicks, made in Adobe Illustrator  (file format cleaned up and slightly modified by Doug Schepers)</desc>
   <g transform="matrix(1.0777,0,0,1.08028,-2.52936,-0.759711) " id="svg_2">
    <g id="svg_274">
     <ellipse cx="63.755" cy="59.375" rx="59.336" ry="59.375" id="svg_341" fill="rgb(17, 0, 112)"/>
     <radialGradient cx="64.5688" cy="7.2266" r="104.221" fx="64.5688" fy="7.2266" id="svg_330" gradientUnits="userSpaceOnUse">
      <stop offset="0" id="svg_340" stop-color="rgb(103, 197, 213)"/>
      <stop offset="0.1604" id="svg_339" stop-color="rgb(102, 194, 211)"/>
      <stop offset="0.2795" id="svg_338" stop-color="rgb(98, 185, 206)"/>
      <stop offset="0.3852" id="svg_337" stop-color="rgb(92, 168, 198)"/>
      <stop offset="0.4832" id="svg_336" stop-color="rgb(83, 146, 186)"/>
      <stop offset="0.5759" id="svg_335" stop-color="rgb(72, 116, 170)"/>
      <stop offset="0.6646" id="svg_334" stop-color="rgb(58, 80, 151)"/>
      <stop offset="0.7485" id="svg_333" stop-color="rgb(42, 39, 129)"/>
      <stop offset="0.8146" id="svg_332" stop-color="rgb(27, 0, 109)"/>
      <stop offset="1" id="svg_331" stop-color="rgb(89, 106, 173)"/>
     </radialGradient>
     <ellipse cx="63.755" cy="59.375" rx="58.215" ry="58.254" id="svg_329" fill="url(#svg_330)"/>
     <radialGradient cx="64.5518" cy="14.1748" r="52.2317" fx="64.5518" fy="14.1748" id="svg_325" gradientUnits="userSpaceOnUse">
      <stop offset="0" id="svg_328" stop-color="rgb(15, 128, 188)"/>
      <stop offset="0.3376" id="svg_327" stop-color="rgb(10, 95, 158)"/>
      <stop offset="1" id="svg_326" stop-color="rgb(0, 20, 90)"/>
     </radialGradient>
     <path d="m55.404999,89.445999c-0.071999,-0.316002 -0.856998,-1.233002 -1.458,-1.437996c-0.598999,-0.205002 -1.188,0.883995 -1.573997,-0.924004c-1.266003,0.725998 -1.812,-0.199997 -1.812,-0.199997c0,0 -1.365002,0.079987 -1.629002,1.750999c-0.649998,0.768997 -2.315998,3.565987 -1.431,0.656998c0.890999,-2.927002 -0.939999,-0.230003 -1.110001,1.239998c-0.317997,0.653 -0.855,0.719002 -0.516998,-2.217987c-1.173,-0.405014 -1.771999,-3.127014 -1.129002,-3.179001c-0.746998,-1.041 -0.16,-2.633003 0.462002,-2.547997c0.621998,0.079994 1.689999,-1.360001 1.656998,-1.694c-0.032997,-0.333 0.482002,-0.095001 0.450001,-2.336006c-0.033001,-2.246994 0.847,-2.802994 0.919003,-0.923996c0.075996,1.871986 1.193996,-0.613014 1.078999,-1.566002c-0.116001,-0.949013 0.112,-3.094002 0.792999,-1.825996c-0.792999,-3.137001 -0.167,-3.260994 0.309002,-1.173004c1.192997,0.094002 1.233997,0.730003 1.233997,0.730003c1.321003,-0.325005 1.954002,0.670006 2.056,1.227997c1.224003,-1.445 2.460003,0.112999 2.460003,0.112999c0,0 0.852997,-0.282997 0.445,1.200005c-0.41,1.477997 1.771999,0.678001 1.250999,-0.384003c1.072998,-0.542999 2.666,1.101997 3.167999,2.223999c0.501999,1.126999 -0.860001,2.723 0.202,3.109001c1.068001,0.384003 0.600002,2.241997 0.600002,2.241997c0,0 2.231987,1.238007 0.682999,2.301003l-0.528,1.264999c0,0 1.009998,1.126999 1.354,0.456001c0.343998,-0.671997 0.466,0.682999 0.466,0.682999c-0.129002,-0.239998 0.248001,1.396004 1.639999,1.740005c1.398003,0.340996 2.282997,2.549995 0.731003,2.577995c-1.546013,0.025002 -1.666,-0.016998 -2.084999,0.886002c-0.417004,0.898987 -2.391003,0.931 -3.413002,-0.233002c-1.087002,0.368004 -3.021,-0.105995 -2.452,-0.975998c-0.938004,0.546997 -1.824001,-0.922005 -1.091003,-1.577003c0.733002,-0.653 -0.411999,-1.499001 -0.796997,-0.562996c-0.381001,0.935005 -2.403999,1.395996 -2.263,-0.195c0.042,-0.472 1.119999,-0.747993 1.133999,-0.354004c0.196999,0.455002 0.277,-0.035995 0.195999,-0.095001l0,-0.000008z" id="svg_324" fill="url(#svg_325)"/>
     <g id="svg_313">
      <radialGradient cx="64.5537" cy="14.1758" r="52.2289" fx="64.5537" fy="14.1758" id="svg_320" gradientUnits="userSpaceOnUse">
       <stop offset="0" id="svg_323" stop-color="rgb(15, 128, 188)"/>
       <stop offset="0.3376" id="svg_322" stop-color="rgb(10, 95, 158)"/>
       <stop offset="1" id="svg_321" stop-color="rgb(0, 20, 90)"/>
      </radialGradient>
      <path d="m103.541,43.916c0.308998,0.306 0.917,0.237999 1.253998,0.144001c0.339005,-0.097 0.291,-0.337002 0.583,-0.431c0.287003,-0.097 1.397003,0.431 1.107002,1.584c-0.673004,0.093998 -0.917,0.911999 -0.917,0.911999c0,0 -0.673004,0.286999 -1.013,0.144001c-0.337997,-0.144001 -0.337997,-0.097 -0.820999,-0.049999c-0.483002,0.049999 -1.642998,-0.622002 -0.387001,-0.622002c1.256996,0 -0.142998,-0.577 -0.675003,-0.577c-0.529999,0 -0.097,-0.528 0.532013,-0.383999c-0.435997,-0.720001 -0.195,-1.251003 0.336998,-0.720001l-0.000008,0z" id="svg_319" fill="url(#svg_320)"/>
      <radialGradient cx="64.5488" cy="14.1724" r="52.2373" fx="64.5488" fy="14.1724" id="svg_315" gradientUnits="userSpaceOnUse">
       <stop offset="0" id="svg_318" stop-color="rgb(15, 128, 188)"/>
       <stop offset="0.3376" id="svg_317" stop-color="rgb(10, 95, 158)"/>
       <stop offset="1" id="svg_316" stop-color="rgb(0, 20, 90)"/>
      </radialGradient>
      <path d="m99.188004,46.523998c-0.337013,0.334003 0.048996,1.344002 0.482986,1.294003c0.432999,-0.047001 1.110001,-0.237999 1.110001,-0.237999c0,0 0.336998,0.671997 0,0.865997c-0.336998,0.190002 -1.319,0.105999 -0.046997,0.575001c1.303993,0.479 1.639999,0.334 1.737,0.094002c0.097,-0.238003 0.529999,-1.054001 0.772995,-1.006001c0.192993,-0.431 -0.675995,-0.815002 -0.192001,-1.105c0.479004,-0.288002 0.096001,-1.343002 0.096001,-1.343002c0,0 -0.676994,0.047001 -0.965996,0.528c-0.290001,0.48 -0.674004,-0.047001 -0.964005,-0.047001c-0.048996,0.287003 -0.242996,0.527 -0.242996,0.527l-0.193001,-0.433998c-0.000999,-0.000999 -1.353996,-0.047001 -1.593987,0.288998z" id="svg_314" fill="url(#svg_315)"/>
     </g>
     <radialGradient cx="65.4053" cy="19.1201" r="57.3827" fx="65.4053" fy="19.1201" id="svg_308" gradientUnits="userSpaceOnUse">
      <stop offset="0" id="svg_312" stop-color="rgb(15, 128, 188)"/>
      <stop offset="0.2643" id="svg_311" stop-color="rgb(11, 98, 155)"/>
      <stop offset="0.8439" id="svg_310" stop-color="rgb(3, 23, 71)"/>
      <stop offset="1" id="svg_309" stop-color="rgb(0, 2, 47)"/>
     </radialGradient>
     <path d="m90.165001,47.313999c-0.042,-0.122997 0.384003,-0.619999 0.269997,0.024002c-0.262001,0.458 1.057999,0.869999 1.428001,0.360001c1.240997,-1.700001 -1.169998,-2.522003 -2.215996,-1.732002c-1.056,0.797001 -1.638,-0.911999 -0.425003,-1.154999c1.209,-0.244999 1.310997,-2.43 -0.021004,-2.438c1.176003,-0.580002 -0.452995,-2.318001 -1.798996,-2.615002c-0.217003,-1.869999 -2.189003,-3.058998 -3.225998,-2.380001c-1.047005,0.681 -1.137001,0.561001 -2.671013,-0.369999c-1.528,-0.926998 -2.264,1.928001 -1.139999,3.174999c1.130997,1.256001 0.310997,3.281002 0.358002,2.935001c0,0 -0.426003,0.765999 -0.398003,1.053001c-1.293999,0.438999 -1.671997,-1.383003 -2.474998,-1.786003c-0.584999,0.763 -1.529999,1.170002 -1.529999,1.170002l0.070999,-1.553001c0,0 -4.016998,-2.188 -5.250999,-1.575001c-1.521004,0.470001 -1.881004,3.991001 -0.5,4.506001c1.382996,0.521 -1.735001,1.818001 1.392998,5.116001c3.213013,3.386002 4.455002,3.483002 5.111,2.931999c0.162003,-0.139 0.442001,-0.347 0.784004,-0.577999c0.030998,0.130001 0.082993,0.255001 0.162994,0.373001c0.803993,1.209 -1.868996,2.161999 -2.241997,3.893997c-0.378998,1.751003 -0.029999,5.007004 1.556,5.118c0.302002,-1.734997 3.269997,-1.121998 1.654999,0.450001c-1.643997,1.603001 -0.490997,1.886002 -0.490997,1.886002c0,0 0.077995,3.002998 2.591995,2.042999c-0.073006,0.171997 -0.131996,0.391998 -0.167,0.632004c-0.702995,-0.142014 -2.421005,-0.357002 -2.840996,0.840996c-0.529999,1.512001 -2.774002,-0.512001 -4.344002,0.167c-1.563004,0.674004 -3.844002,2.887001 -3.076004,4.443001c1.476006,-0.699997 2.606003,2.456001 0.544006,1.807999c-2.069,-0.650002 -1.667,0.583 -1.667,0.583c0,0 -2.153999,1.698997 -0.137001,3.508003c-0.775002,0.117996 -2.152,0.980995 -1.688004,2.874001c0,0 -0.885002,0.031998 -1.004005,1.725998c-2.887005,0.582001 -2.711006,1.477997 1.632996,0.496002c-1.752998,0.909996 1.225998,1.337997 2.545998,1.216995c1.322006,-0.119995 4.792007,1.591003 2.185005,1.608002c-2.612,0.015999 -1.834,1.293999 1.294006,1.355003c3.122993,0.063995 2.795006,0.787987 3.259003,0.755997c0.463997,-0.031998 2.484001,1.560997 2.374001,2.444c-0.112999,0.884003 2.115997,1.801003 3.566002,0.788002c0.073997,0.918999 3.885994,0.201996 4.449997,-1.455002c4.128014,0.630997 4.032997,-0.139 3.114014,-0.628998c-2.067001,-0.316002 -5.860001,-3.063004 -1.746002,-1.650002c4.093002,1.410995 0.150002,-1.110001 -0.929001,-2.079002c-2.349998,-0.457001 -2.470001,-2.416 -2.470001,-2.416c0,0 1.298004,-0.738998 0.274002,-2.585999c2.539001,-0.471001 1.005997,-1.363998 1.291,-2.214996c0.284996,-0.854004 1.573997,-1.942001 2.015999,-2.030014c0.084,-0.114998 0.775002,0.023003 0.134003,0.282997c-0.554001,0.006004 -0.161003,1.566002 0.501999,1.646004c2.241997,0.273003 1.585999,-2.653999 0.268997,-3.243004c-1.32,-0.593994 -0.135002,-2.203995 0.792,-1.119995c0.927002,1.082001 2.993004,-0.133003 2.218002,-1.503998c1.232002,0.853996 1.895996,-1.909004 1.372002,-3.495003c1.647987,-1.429001 1.594986,-4.278 0.32,-4.915001c-0.627014,-0.313 -0.93,-0.515999 -1.082001,-0.904999c0.756996,-0.358002 1.761002,-0.622002 2.154999,-0.269001c0.640999,0.578999 2.424995,-1.018002 2.311996,-2.884998c0.750999,0.411999 1.947014,-3.395 0.931,-4.727001c2.326004,-3.251999 1.699013,-3.547001 0.921013,-3.001999c-1.170013,1.621998 -5.013,3.563 -2.033997,0.688c2.891998,-2.791 -0.769005,-0.675003 -1.994003,-0.222c-1.441002,1.805 -2.970001,0.938 -2.970001,0.938c0,0 0.065002,-1.479 -1.795998,-1.508999c0.859985,-2.373001 -0.526001,-1.516003 -1.011002,-2.164001c-0.486,-0.646999 -0.661003,-2.229 -0.512001,-2.633999l-0.000008,0.000008z" id="svg_307" fill="url(#svg_308)"/>
     <radialGradient cx="64.5508" cy="14.1733" r="52.2333" fx="64.5508" fy="14.1733" id="svg_303" gradientUnits="userSpaceOnUse">
      <stop offset="0" id="svg_306" stop-color="rgb(15, 128, 188)"/>
      <stop offset="0.3376" id="svg_305" stop-color="rgb(10, 95, 158)"/>
      <stop offset="1" id="svg_304" stop-color="rgb(0, 20, 90)"/>
     </radialGradient>
     <path d="m60.007,23.541c-0.361,0.941 1.178001,2.469999 1.951,1.977999c0.775002,-0.494999 1.884998,-1.481998 1.884998,-1.481998c0,0 1.176998,0.945 0.701,1.618999c-0.478996,0.671999 -2.385998,1.427999 0.374001,1.122c2.831001,-0.313 3.347,-0.896999 3.333,-1.437c-0.014999,-0.538 0.140999,-2.469 0.631004,-2.602999c0.014999,-0.990002 -1.925003,-0.898001 -1.253014,-1.889c0.671997,-0.986 -0.904999,-2.606001 -0.904999,-2.606001c0,0 -1.228004,0.719 -1.382004,1.888c-0.155006,1.167 -1.304001,0.538 -1.847996,0.806c0.140999,0.584 -0.026001,1.212 -0.026001,1.212l-0.711002,-0.629c0.001003,-0.001001 -2.570999,1.167999 -2.75,2.021l0.000011,0z" id="svg_302" fill="url(#svg_303)"/>
     <radialGradient cx="64.5518" cy="14.1646" r="52.2415" fx="64.5518" fy="14.1646" id="svg_298" gradientUnits="userSpaceOnUse">
      <stop offset="0" id="svg_301" stop-color="rgb(15, 128, 188)"/>
      <stop offset="0.3376" id="svg_300" stop-color="rgb(10, 95, 158)"/>
      <stop offset="1" id="svg_299" stop-color="rgb(0, 20, 90)"/>
     </radialGradient>
     <path d="m64.610001,72.966003c-0.336998,0.334 0.050003,1.342987 0.483002,1.295998c0.433998,-0.049004 1.110001,-0.239998 1.110001,-0.239998c0,0 0.336998,0.671997 0,0.864998c-0.339005,0.190002 -1.319,0.108002 -0.049004,0.574997c1.303001,0.480003 1.641998,0.335999 1.738998,0.096001c0.095001,-0.239998 0.528999,-1.056 0.771004,-1.008995c0.195,-0.431015 -0.676003,-0.814003 -0.193001,-1.102013c0.483002,-0.291 0.098999,-1.346001 0.098999,-1.346001c0,0 -0.676003,0.047997 -0.966003,0.528999c-0.289986,0.479004 -0.675987,-0.048996 -0.965996,-0.048996c-0.049004,0.287994 -0.239998,0.528 -0.239998,0.528l-0.193001,-0.431c-0.000999,0 -1.354004,-0.048004 -1.595001,0.287994l0,0.000015z" id="svg_297" fill="url(#svg_298)"/>
     <g id="svg_283">
      <defs>
       <ellipse cx="63.755" cy="59.375" rx="58.215" ry="58.254" id="svg_296"/>
       <pattern height="100" width="100" y="0" x="0" patternUnits="userSpaceOnUse" id="gridpattern">
        <image height="100" width="100" y="0" x="0"/>
       </pattern>
      </defs>
      <clipPath id="svg_285">
       <use id="svg_295" x="0" y="0" width="132.72" height="127.219" xlink:href="#svg_296"/>
      </clipPath>
      <linearGradient x1="0.297208" y1="0.490218" x2="0.72914" y2="0.535402" id="svg_291">
       <stop offset="0" id="svg_294" stop-color="rgb(15, 128, 188)"/>
       <stop offset="0.3376" id="svg_293" stop-color="rgb(10, 95, 158)"/>
       <stop offset="1" id="svg_292" stop-color="rgb(0, 20, 90)"/>
      </linearGradient>
      <path d="m65.060997,1.002c-0.911987,0.203 0.613014,3.503 0.613014,3.503c0,0 -0.055,2.216 0.320999,2.329c0.374001,0.113 2.851997,0.733 4.147003,2.345c1.300995,1.614 0.625,2.463 -0.458,1.997c-1.084,-0.464999 -0.797005,0.959001 -0.797005,0.959001c0,0 3.270004,1.063 0.800003,0.995c-2.474998,-0.066 1.666,1.741 1.393005,1.93c-0.272995,0.191 -0.429001,1.231 -0.429001,1.231c0,0 -2.182999,0.181999 -0.332993,0.959c6.259995,2.636999 -0.669006,1.924999 -0.669006,1.924999l-0.883995,1.087l1.749001,2.194l1.344994,0.962c0,0 2.833,-0.945 3.716003,-1.092999c0.884003,-0.146 3.114014,-1.815001 3.114014,-1.815001c0,0 0.668999,0.478001 0.168999,-0.497c-0.500999,-0.976 1.840996,-0.540001 2.424995,0.185999l4.134003,1.867001c0.054001,0.143999 0.145996,0.274 0.292,0.375c0.806,0.565001 -0.729004,1.535 -0.572998,2.562c0.155998,1.015999 1.092987,2.704 2.120995,2.525999c-0.18,-0.969 1.851006,-1.085999 1.144005,-0.005999c-0.706001,1.077 0.076996,1.056 0.076996,1.056c0,0 0.653,1.521 2.034004,0.675999c-0.056,0.464001 0.226997,1.397001 1.413002,1.459002c0,0 -0.126007,0.505999 0.848,0.865c-0.132004,1.737001 0.423996,1.791998 0.560997,-0.846001c0.245003,1.157 0.991997,-0.471001 1.140999,-1.25c0.150002,-0.784 1.756004,-2.504999 1.321999,-0.983999c-0.431,1.507999 4.735001,2.059999 5.308014,0.258999c0.577995,-1.814999 2.636986,-2.762999 2.698997,-3.038c0.062004,-0.281 -4.583,-0.712 -4.07,-0.493c0.514,0.219 1.470001,-0.948 1.114998,-1.986c0.576004,0.116001 0.830002,-2.300999 -0.083,-2.927c1.143005,-2.404999 0.651001,-2.48 0.182007,-2.000999c-0.570007,1.205 -2.922005,3.023001 -1.327003,0.783001c1.609001,-2.263 -0.653,-0.284 -1.438004,0.208c-0.688995,1.341 -1.898994,1.08 -1.898994,1.08c0,0 -0.222,-0.911001 -1.515999,-0.607c0.150993,-1.612 -0.653,-0.838001 -1.120003,-1.154001c-0.285004,-0.192999 -0.558014,-0.626999 -0.726013,-0.998999c1.115013,0.452 2.612,0.932999 2.354004,0.104c-0.167,-0.542 2.112,0.643 2.192001,0.396l2.848,-0.396l2.768997,-1.750001c-17.696999,-15.814 -38.024002,-14.976 -38.024002,-14.976l-0.000031,0z" clip-path="url(#svg_285)" id="svg_290" fill="url(#svg_291)"/>
      <linearGradient x1="0.417548" y1="0.637797" x2="0.204837" y2="1.11534" id="svg_286">
       <stop offset="0" id="svg_289" stop-color="rgb(15, 128, 188)"/>
       <stop offset="0.3376" id="svg_288" stop-color="rgb(10, 95, 158)"/>
       <stop offset="1" id="svg_287" stop-color="rgb(0, 20, 90)"/>
      </linearGradient>
      <path d="m38.751999,6.095c-10.572998,4.747 -18.550999,14.531 -18.550999,14.531c0,0 0.938,2.145 1.264999,1.987001c0.33,-0.156 -2.361,5.627998 -0.386,5.953999c1.985001,0.325001 7.695999,-3.577999 6.636999,-3.219999c-1.056,0.355999 0.595001,-2.112 0.595001,-2.112c0,0 2.972,-1.318001 1.213999,0.202c-1.742998,1.511 2.318001,0.187 2.255001,0.496c-0.064001,0.310999 0.525,1.146999 0.525,1.146999c0,0 -1.393,1.493999 0.406002,0.892c6.171997,-2.075001 0.811996,1.778999 0.811996,1.778999l0.106003,1.312l2.669998,0.464001l1.577999,-0.15c0,0 1.381001,-2.436001 1.914001,-3.098001c0.535,-0.663 1.028,-3.283998 1.028,-3.283998c0,0 0.803001,-0.084002 -0.213001,-0.468c-1.015999,-0.385 0.972,-1.583 1.886002,-1.434l4.303001,-1.336c0.138,0.068001 0.292,0.103001 0.469997,0.082001c0.985001,-0.114 0.489002,1.602999 1.294003,2.25c0.795998,0.643999 2.626999,1.264 3.282997,0.469c-0.784,-0.594 0.674,-2.011 0.860001,-0.751001c0.187,1.249001 0.767002,0.723001 0.767002,0.723001c0,0 1.542999,-2.654001 2.035999,-4.177c0.27,0.376999 2.787998,-3.309001 2.024998,-5.067c-0.771,-1.780001 0.479,-3.456 0.34,-3.715c-0.142998,-0.256001 -0.896,0.528 -0.34,0.34c0.561001,-0.192 -1.588997,0.771999 -1.873997,-2.061c-0.288002,-2.89 -0.707001,0.243001 -0.985001,1.169c0.376999,1.508 4.290001,-6.093 4.290001,-6.093l5.043987,-2.057c0,0.004 -11.480999,-0.957 -25.253998,5.226l0.000008,0z" clip-path="url(#svg_285)" id="svg_284" fill="url(#svg_286)"/>
     </g>
     <linearGradient x1="0.499998" y1="0.782294" x2="0.499998" y2="0.21519" id="svg_276">
      <stop offset="0.0137" id="svg_282" stop-opacity="0" stop-color="black"/>
      <stop offset="0.65" id="svg_281" stop-opacity="0.2" stop-color="rgb(196, 224, 227)"/>
      <stop offset="0.8224" id="svg_280" stop-color="rgb(196, 224, 227)"/>
      <stop offset="0.8498" id="svg_279" stop-color="rgb(205, 229, 232)"/>
      <stop offset="0.9443" id="svg_278" stop-color="rgb(232, 244, 247)"/>
      <stop offset="1" id="svg_277" stop-color="rgb(242, 250, 252)"/>
     </linearGradient>
     <ellipse cx="62.652" cy="23.271" rx="30.825" ry="19.971" id="svg_275" fill="url(#svg_276)" opacity="0.5"/>
    </g>
    <g id="svg_105">
     <g id="svg_264">
      <linearGradient x1="0.493594" y1="0.425275" x2="0.609684" y2="0.350175" id="svg_266">
       <stop offset="0" id="svg_271" stop-color="rgb(223, 115, 27)"/>
       <stop offset="0.5449" id="svg_270" stop-color="rgb(223, 115, 27)"/>
       <stop offset="0.7014" id="svg_269" stop-color="rgb(236, 136, 17)"/>
       <stop offset="0.8593" id="svg_268" stop-color="rgb(244, 149, 11)"/>
       <stop offset="1" id="svg_267" stop-color="rgb(247, 154, 9)"/>
      </linearGradient>
      <path d="m125.320999,43.084l-1.426003,9.150002c0,0 -2.038986,-16.940002 -4.537987,-23.273001c-3.830002,-9.704 -5.533997,-9.626001 -5.545013,-9.612c2.565002,6.518999 2.100014,10.021 2.100014,10.021c0,0 -4.545013,-12.387001 -16.561996,-16.328001c-14.232002,-4.665 -21.482002,-2.979 -21.428001,-2.914c0.054001,0.066 14.709,2.562 17.308006,6.132999c0,0 -6.225006,0 -12.420006,1.785c-0.280006,0.08 22.792999,2.882 27.509995,25.938002c0,0 -2.528999,-5.277 -5.656998,-6.173c2.056999,6.257999 1.528999,18.132999 -0.43,24.035c-0.251999,0.758999 -0.510002,-3.281002 -4.368996,-5.021c1.236,8.856998 -0.074005,22.905003 -6.219002,26.774998c-0.479004,0.301003 3.852005,-13.867996 0.870995,-8.389999c-17.796997,27.287003 -38.955997,11.040001 -47.537998,5.249001c6.888,1.688004 14.205002,0.472 18.440998,-2.422997c4.275002,-2.922005 6.804001,-5.058014 9.075005,-4.553001c2.269997,0.506996 3.780998,-1.771004 2.017998,-3.792c-1.764999,-2.025002 -6.050995,-4.807999 -11.848999,-3.291c-4.089001,1.070999 -9.155998,5.595001 -16.890999,1.014c-6.598999,-3.91 -6.554001,-7.085003 -6.554001,-9.108002c0,-2.023998 1.799999,-5.099998 5.076,-4.595001c2.933998,0.453003 1.388,-1.269997 4.544998,0c0.860001,0.346001 -0.085999,-4.128998 -1.309998,-6.995998c2.356998,-4.918999 10.003998,-6.381001 10.575001,-6.812c1.033997,-0.782001 0.465,-1.172001 0.817997,-2.349998c0.330002,-1.097 0.541,-4.062 -8.016998,-3.243c-3.938,0.376999 -6.443001,-4.726002 -7.264,-5.965002c0.265999,-1.577 0.693001,-3.018 1.271,-4.337999c0.586998,-1.202999 1.228001,-2.305 1.868,-3.139c0.200001,-0.261 0.374001,-0.49 0.532001,-0.702999c1.275997,-1.488001 2.841999,-2.76 4.722,-3.818001c0.980999,-0.554 -10.969002,-0.035 -16.346001,6.973999c-1.443001,0.188002 -3.423,-0.227999 -5.636002,-0.227999c-2.774,0 -4.952999,0.302999 -6.969999,0.809999c-0.323,0.080999 -0.844,0.037001 -1.481001,-0.115c-1.775,-1.839001 -6.796999,-6.259001 -7.026999,-12.254c0,0 -7.302001,5.612 -6.209001,20.911999c-0.096001,8.461002 -2.594,6.042 -3.879,10.634003c-0.598,2.175999 0.899,3.814999 0.899,3.878998c-0.002,0.033001 1.796,-1.945999 1.796,-1.945999c0,0 -11.323,19.616997 3.3,44.659996c12.604,21.589005 33.755001,31.130005 55.703003,29.272003c3.838997,-0.25 7.705994,-0.821999 11.563995,-1.753998c51.133003,-12.362999 45.572998,-74.107002 45.572998,-74.107002l-0.000008,0z" id="svg_265" fill="url(#svg_266)"/>
     </g>
     <linearGradient x1="0.092319" y1="0.474281" x2="0.572651" y2="0.521461" id="svg_261">
      <stop offset="0.0112" id="svg_263" stop-color="rgb(148, 20, 3)"/>
      <stop offset="0.8972" id="svg_262" stop-color="rgb(232, 92, 10)"/>
     </linearGradient>
     <path d="m45.469002,27.610001c0,0 2.209999,6.038998 7.167,6.019001c9.456997,-0.038002 9.646,0.092999 9.706997,1.243c0.188,3.5 -1.539997,4.646999 -2.201,5.144997c-0.662998,0.497002 -9.667999,5.718002 -9.998997,7.211002c-0.331001,1.492001 -10.391003,-14.198002 -10.391003,-14.198002l5.717003,-5.419998z" id="svg_260" fill="url(#svg_261)"/>
     <linearGradient x1="-2.278744" y1="-0.023074" x2="1.149176" y2="0.652197" id="svg_254">
      <stop offset="0.0112" id="svg_259" stop-color="rgb(148, 20, 3)"/>
      <stop offset="0.1357" id="svg_258" stop-color="rgb(163, 33, 4)"/>
      <stop offset="0.4978" id="svg_257" stop-color="rgb(200, 65, 7)"/>
      <stop offset="0.7893" id="svg_256" stop-color="rgb(223, 85, 9)"/>
      <stop offset="0.972" id="svg_255" stop-color="rgb(232, 92, 10)"/>
     </linearGradient>
     <path d="m50.504002,34.119999c0,0 3.071999,3.922001 0.748997,5.491001c-2.837997,1.916 4.012001,2.334999 6.494003,0.942001c2.481998,-1.393002 4.005997,-3.440002 4.092999,-3.745003c0.087002,-0.305 0.902,-3.053997 -4.278999,-2.095997c-3.276001,0.605999 -4.476002,0.745998 -7.056999,-0.592003z" id="svg_253" fill="url(#svg_254)"/>
     <linearGradient x1="0.164711" y1="0.711952" x2="0.358757" y2="0.580173" id="svg_250">
      <stop offset="0" id="svg_252" stop-color="rgb(242, 200, 169)"/>
      <stop offset="1" id="svg_251" stop-color="rgb(255, 255, 204)"/>
     </linearGradient>
     <path d="m60.143002,40.016998c0.501999,-0.377998 1.615997,-1.136997 2.042,-3.010998c-0.311001,0.125999 -0.34,-0.23 -0.707001,-0.076c-6.955002,7.255001 -7.221001,2.202999 -11.017002,3.220001c-3.459999,0.946999 -4.237,2.245998 -4.382999,2.347c0.051003,0.072998 0.104,0.147999 0.155003,0.220997c0.996998,0.506001 1.952999,2.122002 2.670998,3.564003c0.702,0.835999 1.173,1.247997 1.241001,0.945c0.329998,-1.493 9.334999,-6.714001 9.998001,-7.210003z" id="svg_249" fill="url(#svg_250)"/>
     <linearGradient x1="0.364541" y1="0.502145" x2="0.917661" y2="0.531608" id="svg_246">
      <stop offset="0" id="svg_248" stop-color="rgb(179, 0, 0)"/>
      <stop offset="1" id="svg_247" stop-color="rgb(223, 115, 27)"/>
     </linearGradient>
     <path d="m8.18,45.782001c-1.42,2.979 -10.532,18.376995 4.339,44.005001c14.551999,25.084 39.737,33.276001 65.450002,27.709999c7.339996,-1.588013 15.803001,-7.331001 21.195999,-11.544998c-3.465004,-8.740013 -1.414001,-8.412003 -3.271004,-7.262001c-20.713997,12.822998 -37.179996,0.173996 -49.923996,-1.443001c-46.883001,-5.942001 -37.625001,-51.558002 -37.625001,-51.558002l-0.165,0.093002z" id="svg_245" fill="url(#svg_246)"/>
     <linearGradient x1="0.310067" y1="0.216944" x2="1.218719" y2="1.300089" id="svg_242">
      <stop offset="0" id="svg_244" stop-color="rgb(148, 20, 3)"/>
      <stop offset="1" id="svg_243" stop-color="rgb(223, 115, 27)"/>
     </linearGradient>
     <path d="m47.219002,80.932999c4.418999,1.325005 14.059998,0.182999 18.200996,-2.896996c2.790001,-2.074013 4.898003,-3.638 6.671013,-4.292c-3.134003,-2.129013 -3.184013,0.889 -9.774002,2.414986c-13.728001,3.185013 -20.392998,-3.695 -20.392998,-3.695c0.972,5.444 4.371998,8.095001 5.902,9.036003c-0.406002,-0.360001 -0.619003,-0.570999 -0.607002,-0.567001l-0.000008,0.000008z" id="svg_241" fill="url(#svg_242)"/>
     <linearGradient x1="-0.036435" y1="0.482877" x2="1.036429" y2="0.517104" id="svg_238">
      <stop offset="0.0562" id="svg_240" stop-color="rgb(179, 0, 0)"/>
      <stop offset="1" id="svg_239" stop-color="rgb(222, 92, 1)"/>
     </linearGradient>
     <path d="m32.332001,105.793999c0,0 -11.428001,-12.895996 -14.618,-27.337997c-4.704,-4.443001 -8.042001,-8.200005 -10.259001,-10.917c1.28,10.277 6.52,26.232002 24.877001,38.254997z" id="svg_237" fill="url(#svg_238)"/>
     <linearGradient x1="0.408046" y1="0.385879" x2="1.257455" y2="2.002145" id="svg_234">
      <stop offset="0.0562" id="svg_236" stop-color="rgb(222, 114, 16)"/>
      <stop offset="1" id="svg_235" stop-color="rgb(246, 192, 143)"/>
     </linearGradient>
     <path d="m22.799,94.082001c0,0 -7.887,-11.228004 -4.93,-20.762001c2.66,-8.570999 -0.564999,-3.472 -2.440999,-1.639999c-1.895,1.850998 -2.869,-5.463997 -2.821,-6.306999c0.002999,-0.017998 0.000999,-0.026001 -0.001,-0.027c-0.118999,-0.025002 -3.754,17.526001 10.193,28.736z" id="svg_233" fill="url(#svg_234)"/>
     <linearGradient x1="0.489426" y1="0.375683" x2="0.302361" y2="1.718435" id="svg_230">
      <stop offset="0.0562" id="svg_232" stop-color="rgb(222, 114, 16)"/>
      <stop offset="1" id="svg_231" stop-color="rgb(246, 192, 143)"/>
     </linearGradient>
     <path d="m11.115,84.293999c0,0 -1.797999,-22.787998 3.885,-26.008999c9.025,-5.115002 0.753,-3.918999 -1.864,-2.499001c-2.645,1.433002 -2.4,-8 -2.026,-8.896c0.367001,-0.882999 -9.315,8.917999 0.005,37.403999z" id="svg_229" fill="url(#svg_230)"/>
     <path d="m50.601002,17.239c0,0 -7.145,7.257 -7.092003,7.282c0.054001,0.026001 0.205002,9.314999 0.438,11.948002c0.856003,1.010998 3.524002,7.587997 1.482002,6.127998c-2.086002,-1.490002 -0.582001,-1.521999 -0.400002,-0.764999c0.005001,0.024998 0.005001,0.036999 0,0.036999c-0.138,0.063999 -5.184998,-10.923 5.572002,-24.629999z" id="svg_228" fill="rgb(164, 0, 0)"/>
     <linearGradient x1="0.560862" y1="0.880495" x2="0.180877" y2="0.238597" id="svg_224">
      <stop offset="0.0112" id="svg_227" stop-color="rgb(148, 20, 3)"/>
      <stop offset="0.4719" id="svg_226" stop-color="rgb(232, 92, 10)"/>
      <stop offset="1" id="svg_225" stop-color="rgb(249, 189, 95)"/>
     </linearGradient>
     <path d="m16.613001,11.647c0,0 -7.594001,5.825 -6.143001,21.804999c5.877999,-5.277 14.19,-9.222 14.19,-9.222c-1.395,-0.878 -7.794001,-5.997 -8.046999,-12.582999z" id="svg_223" fill="url(#svg_224)"/>
     <linearGradient x1="0.339075" y1="0.65756" x2="1.03518" y2="0.020606" id="svg_219">
      <stop offset="0.1966" id="svg_222" stop-color="rgb(222, 114, 16)"/>
      <stop offset="0.8427" id="svg_221" stop-color="rgb(249, 189, 95)"/>
      <stop offset="1" id="svg_220" stop-color="rgb(255, 252, 207)"/>
     </linearGradient>
     <path d="m35.327999,29.122l11.406002,14.184999c-3.291,-13.929998 -0.761002,-22.288 7.34,-26.847c1.198997,-0.675999 -16.925003,0.243 -18.746002,12.662001z" id="svg_218" fill="url(#svg_219)"/>
     <linearGradient x1="0.240783" y1="0.112001" x2="0.65819" y2="0.86934" id="svg_214">
      <stop offset="0.0169" id="svg_217" stop-color="rgb(148, 20, 3)"/>
      <stop offset="0.5" id="svg_216" stop-color="rgb(227, 81, 0)"/>
      <stop offset="1" id="svg_215" stop-color="rgb(223, 115, 27)"/>
     </linearGradient>
     <path d="m27.292,64.164001c1.945,-12.256001 19.001999,-10.454002 19.001999,-10.454002c-0.760998,0.565002 -3.682999,0.903 -4.52,3.241001c-2.761997,7.718998 -0.127998,24.580997 17.078003,31.652996c1.814999,0.748001 -34.434002,-6.327995 -31.560001,-24.439987l0,-0.000008z" id="svg_213" fill="url(#svg_214)"/>
     <linearGradient x1="0.48333" y1="0.393868" x2="0.719082" y2="0.694265" id="svg_206">
      <stop offset="0" id="svg_212" stop-color="rgb(238, 162, 114)"/>
      <stop offset="0.1865" id="svg_211" stop-color="rgb(239, 167, 119)"/>
      <stop offset="0.4064" id="svg_210" stop-color="rgb(242, 181, 133)"/>
      <stop offset="0.643" id="svg_209" stop-color="rgb(246, 205, 156)"/>
      <stop offset="0.8898" id="svg_208" stop-color="rgb(252, 238, 187)"/>
      <stop offset="1" id="svg_207" stop-color="rgb(255, 255, 204)"/>
     </linearGradient>
     <path d="m62.087002,37.338001c-0.084003,-0.014999 -0.158001,-0.013 -0.195004,0.036999c-0.209999,0.280998 -1.021,1.238998 -2.949997,2.810001c-3.583,2.914997 -5.093002,2.176998 -7.762001,2.773998c-1.215,0.271 -2.369999,1.087002 -3.147999,1.741001c0.314999,0.508999 0.608997,1.056999 0.870998,1.582001c0.702,0.835999 1.173,1.247997 1.241001,0.945c0.330997,-1.493 9.335999,-6.714001 9.999001,-7.211002c0.469997,-0.353001 1.467999,-1.053997 1.944,-2.677998z" id="svg_205" fill="url(#svg_206)"/>
     <linearGradient x1="0.471424" y1="0.597518" x2="0.986841" y2="1.418213" id="svg_201">
      <stop offset="0.1966" id="svg_204" stop-color="rgb(223, 115, 27)"/>
      <stop offset="0.8427" id="svg_203" stop-color="rgb(249, 189, 95)"/>
      <stop offset="1" id="svg_202" stop-color="rgb(255, 252, 207)"/>
     </linearGradient>
     <path d="m51.09,55.865002c0.099998,-2.59 -0.081001,-8.881001 -2.773998,-11.611c-2.057003,-2.085003 -2.540001,-4.474003 -2.816002,-7.201c-22.363001,8.352997 -25.556,19.271999 -23.32,18.917c17.886002,-2.835003 22.914001,-3.182003 28.91,-0.105z" id="svg_200" fill="url(#svg_201)"/>
     <linearGradient x1="0.639535" y1="0.015073" x2="-0.279372" y2="1.761426" id="svg_197">
      <stop offset="0.0562" id="svg_199" stop-color="rgb(222, 114, 16)"/>
      <stop offset="1" id="svg_198" stop-color="rgb(246, 192, 143)"/>
     </linearGradient>
     <path d="m3.411,71.170998c0,0 1.554,-20.191998 11.661,-27.581997c7.935,-5.805 1.773,-3.695999 -1.290999,-3.456001c-3.231,0.256001 -4.954,2.221001 -4.331,1.498001c0.027,-0.029999 0.036,-0.047001 0.031,-0.055c-0.106,-0.125 -7.584,6.150002 -6.07,29.594997z" id="svg_196" fill="url(#svg_197)"/>
     <linearGradient x1="0.651861" y1="0.230618" x2="-0.157226" y2="1.771186" id="svg_193">
      <stop offset="0.0562" id="svg_195" stop-color="rgb(222, 114, 16)"/>
      <stop offset="1" id="svg_194" stop-color="rgb(242, 192, 110)"/>
     </linearGradient>
     <path d="m2.347,55.658001c0,0 5.416,-17.192001 16.362,-17.047001c7.259001,0.097 1.500999,-6.133999 -0.695,-7.080999c-2.291,-0.981001 -2.839,-0.943001 -3.374,-0.469c-0.802,0.709999 -8.004,0.435999 -12.293,24.597z" id="svg_192" fill="url(#svg_193)"/>
     <linearGradient x1="1.2284" y1="0.230056" x2="0.173332" y2="0.817859" id="svg_183">
      <stop offset="0.0047" id="svg_191" stop-color="rgb(255, 250, 238)"/>
      <stop offset="0.2757" id="svg_190" stop-color="rgb(245, 248, 155)"/>
      <stop offset="0.3102" id="svg_189" stop-color="rgb(243, 237, 145)"/>
      <stop offset="0.4668" id="svg_188" stop-color="rgb(236, 194, 103)"/>
      <stop offset="0.6182" id="svg_187" stop-color="rgb(230, 160, 70)"/>
      <stop offset="0.7611" id="svg_186" stop-color="rgb(226, 135, 46)"/>
      <stop offset="0.8921" id="svg_185" stop-color="rgb(224, 120, 32)"/>
      <stop offset="1" id="svg_184" stop-color="rgb(223, 115, 27)"/>
     </linearGradient>
     <path d="m76.184998,72.486c0.823013,-0.806999 0.249001,-3.903 -4.923996,-5.779999c-4.694,-1.705002 -12.021,2.629997 -14.195,3.486c0,0 8.298996,-1.555 11.410995,-1.037003c4.218002,0.702003 5.700005,5.301003 7.708,3.331001z" id="svg_182" fill="url(#svg_183)"/>
     <linearGradient x1="0.566873" y1="0.03388" x2="0.011987" y2="1.735079" id="svg_179">
      <stop offset="0.0562" id="svg_181" stop-color="rgb(222, 114, 16)"/>
      <stop offset="1" id="svg_180" stop-color="rgb(242, 192, 110)"/>
     </linearGradient>
     <path d="m10.342,66.821999c0,0 -0.899,-16.902 6.676,-24.120998c5.947001,-5.670002 1.069,-3.255001 -1.443999,-2.723999c-2.650001,0.562 -3.865001,2.376999 -3.426001,1.709999c0.019,-0.028 0.023001,-0.042999 0.019,-0.049c-0.103,-0.091 -5.619,5.918999 -1.825,25.183998z" id="svg_178" fill="url(#svg_179)"/>
     <linearGradient x1="0.702446" y1="-0.001394" x2="-0.383988" y2="1.78561" id="svg_175">
      <stop offset="0.0562" id="svg_177" stop-color="rgb(222, 114, 16)"/>
      <stop offset="1" id="svg_176" stop-color="rgb(242, 192, 110)"/>
     </linearGradient>
     <path d="m4.508,61.452999c0,0 3.201,-16.620998 12.293001,-21.800999c7.137999,-4.069 1.823,-2.901001 -0.745001,-2.991001c-2.708,-0.092999 -4.323999,1.375 -3.738,0.834c0.025001,-0.021999 0.033,-0.036999 0.03,-0.042c-0.075999,-0.114998 -6.877999,4.389 -7.84,24z" id="svg_174" fill="url(#svg_175)"/>
     <linearGradient x1="0.512769" y1="0.37923" x2="0.645837" y2="1.749259" id="svg_171">
      <stop offset="0.0562" id="svg_173" stop-color="rgb(222, 114, 16)"/>
      <stop offset="1" id="svg_172" stop-color="rgb(242, 192, 114)"/>
     </linearGradient>
     <path d="m15.303,68.275002c0,0 -1.75,-10.074001 2.020999,-15.033001c3.01,-3.957001 0.367001,-2.021 -1.029999,-1.451c-1.458,0.596001 -2.011001,1.771 -1.812,1.34c0.193,-0.421001 -6.488,4.756001 0.821,15.144001z" id="svg_170" fill="url(#svg_171)"/>
     <linearGradient x1="0.512799" y1="0.379251" x2="0.645859" y2="1.749247" id="svg_167">
      <stop offset="0.0562" id="svg_169" stop-color="rgb(222, 114, 16)"/>
      <stop offset="1" id="svg_168" stop-color="rgb(242, 192, 114)"/>
     </linearGradient>
     <path d="m17.302999,58.775002c0,0 -1.749999,-10.074001 2.021,-15.033001c3.01,-3.957001 0.367001,-2.021 -1.029999,-1.451c-1.458,0.596001 -2.011,1.771 -1.812,1.34c0.192999,-0.421001 -6.488,4.756001 0.820999,15.144001z" id="svg_166" fill="url(#svg_167)"/>
     <linearGradient x1="0.474232" y1="0.392771" x2="-0.018754" y2="1.315239" id="svg_163">
      <stop offset="0.0562" id="svg_165" stop-color="rgb(222, 114, 16)"/>
      <stop offset="1" id="svg_164" stop-color="rgb(238, 216, 165)"/>
     </linearGradient>
     <path d="m6.725,45.002998c0,0 4.087,-8.375 9.520001,-10.023998c4.335999,-1.314999 1.349998,-1.296001 0.014,-1.622002c-1.396001,-0.337997 -2.431001,0.234001 -2.054001,0.022003c0.368,-0.207001 -7.33,0.049 -7.48,11.623997z" id="svg_162" fill="url(#svg_163)"/>
     <linearGradient x1="0.474232" y1="0.392686" x2="-0.018745" y2="1.31512" id="svg_159">
      <stop offset="0.0562" id="svg_161" stop-color="rgb(222, 114, 16)"/>
      <stop offset="1" id="svg_160" stop-color="rgb(238, 216, 165)"/>
     </linearGradient>
     <path d="m6.142,51.631001c0,0 4.087,-8.375 9.52,-10.024002c4.335999,-1.314999 1.349999,-1.295998 0.014,-1.621998c-1.396,-0.338001 -2.431,0.234001 -2.054,0.021999c0.367001,-0.208 -7.331,0.049 -7.48,11.624001z" id="svg_158" fill="url(#svg_159)"/>
     <linearGradient x1="0.442735" y1="0.522027" x2="0.172625" y2="1.194335" id="svg_155">
      <stop offset="0.0562" id="svg_157" stop-color="rgb(222, 114, 16)"/>
      <stop offset="1" id="svg_156" stop-color="rgb(242, 192, 114)"/>
     </linearGradient>
     <path d="m9.109,49.803001c0,0 7.209001,-14.774002 16.794,-17.684002c7.650002,-2.32 2.382,-2.286999 0.024,-2.859999c-2.462,-0.597 -4.288,0.414 -3.624001,0.039c0.65,-0.367001 -12.929999,0.084999 -13.193999,20.505001z" id="svg_154" fill="url(#svg_155)"/>
     <linearGradient x1="0.495747" y1="0.32227" x2="-0.531302" y2="1.866585" id="svg_151">
      <stop offset="0.0562" id="svg_153" stop-color="rgb(222, 114, 16)"/>
      <stop offset="1" id="svg_152" stop-color="rgb(242, 192, 114)"/>
     </linearGradient>
     <path d="m14.037,41.846001c0,0 4.484,-9.188999 10.445001,-10.999001c4.757999,-1.443001 1.480999,-1.422001 0.014999,-1.778999c-1.532,-0.371 -2.667,0.257 -2.254,0.023998c0.403999,-0.227999 -8.042,0.053001 -8.206,12.754002z" id="svg_150" fill="url(#svg_151)"/>
     <linearGradient x1="0.495726" y1="0.322319" x2="-0.531257" y2="1.866571" id="svg_147">
      <stop offset="0.0562" id="svg_149" stop-color="rgb(222, 114, 16)"/>
      <stop offset="1" id="svg_148" stop-color="rgb(242, 192, 114)"/>
     </linearGradient>
     <path d="m15.499,45.091999c0,0 4.087001,-8.375 9.52,-10.023998c4.336,-1.315002 1.35,-1.296001 0.014002,-1.622002c-1.396002,-0.337997 -2.431002,0.234001 -2.054001,0.021999c0.367001,-0.208 -7.331,0.049 -7.48,11.624001z" id="svg_146" fill="url(#svg_147)"/>
     <linearGradient x1="0.525889" y1="0.141798" x2="0.74532" y2="0.512048" id="svg_143">
      <stop offset="0" id="svg_145" stop-color="rgb(139, 139, 137)"/>
      <stop offset="1" id="svg_144" stop-color="rgb(18, 5, 0)"/>
     </linearGradient>
     <path d="m62.344002,34.872002c-0.047001,-0.873001 -0.176003,-1.158001 -4.356003,-1.229c0.479,0.216999 1.305,0.651997 2.214001,1.397999c1.201,0.984001 1.396,2.081001 1.52,3.216999c0.407001,-0.773998 0.704998,-1.841 0.622002,-3.385998z" id="svg_142" fill="url(#svg_143)"/>
     <linearGradient x1="0.500027" y1="0.377877" x2="0.500027" y2="0.057685" id="svg_139">
      <stop offset="0.0562" id="svg_141" stop-color="rgb(222, 114, 16)"/>
      <stop offset="1" id="svg_140" stop-color="rgb(246, 192, 143)"/>
     </linearGradient>
     <path d="m37.801998,23.205999l-3.625,5.833c0,0 -14.495998,-2.272999 -26.784998,9.615999c-1.016,0.982002 8.038,-21.022999 30.409998,-15.448999z" id="svg_138" fill="url(#svg_139)"/>
     <linearGradient x1="-0.245491" y1="1.070796" x2="1.048847" y2="-0.255435" id="svg_135">
      <stop offset="0.0562" id="svg_137" stop-color="rgb(222, 114, 16)"/>
      <stop offset="1" id="svg_136" stop-color="rgb(246, 192, 143)"/>
     </linearGradient>
     <path d="m24.784,33.646c0,0 3.862999,-7.171999 8.871998,-9.339001c-2.588999,0.082001 -8.402998,2.106001 -8.871998,9.339001z" id="svg_134" fill="url(#svg_135)"/>
     <linearGradient x1="0.474257" y1="0.39278" x2="-0.018711" y2="1.315213" id="svg_131">
      <stop offset="0.0562" id="svg_133" stop-color="rgb(222, 114, 16)"/>
      <stop offset="1" id="svg_132" stop-color="rgb(238, 216, 165)"/>
     </linearGradient>
     <path d="m9.92,40.646c0,0 4.087,-8.375 9.52,-10.024c4.335999,-1.315001 1.35,-1.296 0.014,-1.622c-1.396,-0.337999 -2.431,0.233999 -2.054001,0.021999c0.368,-0.206999 -7.330999,0.049 -7.48,11.624001z" id="svg_130" fill="url(#svg_131)"/>
     <linearGradient x1="-0.234385" y1="1.059334" x2="1.06201" y2="-0.268477" id="svg_127">
      <stop offset="0.0562" id="svg_129" stop-color="rgb(222, 114, 16)"/>
      <stop offset="1" id="svg_128" stop-color="rgb(246, 192, 143)"/>
     </linearGradient>
     <path d="m18.482,34.744999c0,0 4.216999,-6.750999 9.234999,-8.547998c-2.526999,-0.083 -8.323,1.525999 -9.234999,8.547998z" id="svg_126" fill="url(#svg_127)"/>
     <linearGradient x1="-0.37871" y1="-0.250016" x2="1.063816" y2="0.912547" id="svg_123">
      <stop offset="0.0562" id="svg_125" stop-color="rgb(222, 114, 16)"/>
      <stop offset="1" id="svg_124" stop-color="rgb(246, 192, 143)"/>
     </linearGradient>
     <path d="m25.712,23.214001c0,0 -3.18,1.389 -8.787001,-0.942001l4.999001,2.513l3.788,-1.570999z" id="svg_122" fill="url(#svg_123)"/>
     <linearGradient x1="-0.387091" y1="-0.06974" x2="1.080951" y2="0.827882" id="svg_119">
      <stop offset="0.0562" id="svg_121" stop-color="rgb(222, 114, 16)"/>
      <stop offset="1" id="svg_120" stop-color="rgb(246, 192, 143)"/>
     </linearGradient>
     <path d="m24.174999,24.105c0,0 -4.237999,1.642 -12.393999,-0.802l6.976999,2.776001c0.863001,-0.798 5.417,-1.974001 5.417,-1.974001z" id="svg_118" fill="url(#svg_119)"/>
     <linearGradient x1="-0.387652" y1="-0.151249" x2="1.066772" y2="0.917122" id="svg_115">
      <stop offset="0.0562" id="svg_117" stop-color="rgb(222, 114, 16)"/>
      <stop offset="1" id="svg_116" stop-color="rgb(246, 192, 143)"/>
     </linearGradient>
     <path d="m27.268,22.759001c0,0 -2.813,0.855999 -8.008999,-1.154001l4.998999,2.513c0.528,-0.466999 3.01,-1.358999 3.01,-1.358999z" id="svg_114" fill="url(#svg_115)"/>
     <linearGradient x1="0.557329" y1="0.483853" x2="-0.877536" y2="-0.07629" id="svg_111">
      <stop offset="0.0562" id="svg_113" stop-color="rgb(222, 114, 16)"/>
      <stop offset="1" id="svg_112" stop-color="rgb(246, 192, 143)"/>
     </linearGradient>
     <path d="m18.496,25.993c0,0 -2.09,1.735001 -7.443,1.806l4.629999,0.151001l2.813001,-1.957001z" id="svg_110" fill="url(#svg_111)"/>
     <linearGradient x1="-0.198823" y1="1.097005" x2="1.06516" y2="-0.270983" id="svg_107">
      <stop offset="0.0562" id="svg_109" stop-color="rgb(222, 114, 16)"/>
      <stop offset="1" id="svg_108" stop-color="rgb(246, 192, 143)"/>
     </linearGradient>
     <path d="m13.411,34.870998c0,0 7.152999,-9.317999 13.044,-11.427998c-2.968,-0.097 -11.975,3.185999 -13.044,11.427998z" id="svg_106" fill="url(#svg_107)"/>
    </g>
    <g id="svg_16">
     <linearGradient x1="0.101196" y1="1.078118" x2="0.826184" y2="0.355779" id="svg_97">
      <stop offset="0" id="svg_104" stop-color="rgb(222, 92, 1)"/>
      <stop offset="0.736" id="svg_103" stop-color="rgb(254, 253, 0)"/>
      <stop offset="0.7783" id="svg_102" stop-color="rgb(254, 254, 38)"/>
      <stop offset="0.8369" id="svg_101" stop-color="rgb(255, 254, 84)"/>
      <stop offset="0.889" id="svg_100" stop-color="rgb(255, 255, 118)"/>
      <stop offset="0.932" id="svg_99" stop-color="rgb(255, 255, 139)"/>
      <stop offset="0.9607" id="svg_98" stop-color="rgb(255, 255, 146)"/>
     </linearGradient>
     <path d="m124.198997,50.759998c0,0 0.771004,17.287998 -23.243996,41.304005c-2.668999,2.667999 -17.160004,16.243996 -16.650002,20.316986c0.179001,1.439003 38.020996,-5.805 39.893997,-61.620998l0,0.000008z" id="svg_96" fill="url(#svg_97)"/>
     <linearGradient x1="0.796889" y1="0.579791" x2="0.248224" y2="0.198179" id="svg_88">
      <stop offset="0" id="svg_95" stop-color="rgb(247, 154, 9)"/>
      <stop offset="0.736" id="svg_94" stop-color="rgb(254, 253, 0)"/>
      <stop offset="0.7783" id="svg_93" stop-color="rgb(254, 254, 38)"/>
      <stop offset="0.8369" id="svg_92" stop-color="rgb(255, 254, 84)"/>
      <stop offset="0.889" id="svg_91" stop-color="rgb(255, 255, 118)"/>
      <stop offset="0.932" id="svg_90" stop-color="rgb(255, 255, 139)"/>
      <stop offset="0.9607" id="svg_89" stop-color="rgb(255, 255, 146)"/>
     </linearGradient>
     <path d="m77.639999,10.096c28.926003,2.222 34.528,23.021001 34.529999,21.748c0.072998,-20.22 -27.444,-21.755 -34.529999,-21.748z" id="svg_87" fill="url(#svg_88)"/>
     <linearGradient x1="1.21716" y1="0.92589" x2="0.190137" y2="-0.035005" id="svg_79">
      <stop offset="0" id="svg_86" stop-color="rgb(222, 92, 1)"/>
      <stop offset="0.736" id="svg_85" stop-color="rgb(254, 253, 0)"/>
      <stop offset="0.7783" id="svg_84" stop-color="rgb(254, 254, 38)"/>
      <stop offset="0.8369" id="svg_83" stop-color="rgb(255, 254, 84)"/>
      <stop offset="0.889" id="svg_82" stop-color="rgb(255, 255, 118)"/>
      <stop offset="0.932" id="svg_81" stop-color="rgb(255, 255, 139)"/>
      <stop offset="0.9607" id="svg_80" stop-color="rgb(255, 255, 146)"/>
     </linearGradient>
     <path d="m86.448997,18.003c0,0 20.053001,4.098999 25.709,25.353998c0.75,2.815002 -2.416,-17.266998 -1.438995,-15.360998c0.974998,1.916 -8.070999,-9.358 -24.270004,-9.993z" id="svg_78" fill="url(#svg_79)"/>
     <linearGradient x1="0.602389" y1="0.531977" x2="0.159905" y2="0.276422" id="svg_70">
      <stop offset="0" id="svg_77" stop-color="rgb(247, 154, 9)"/>
      <stop offset="0.736" id="svg_76" stop-color="rgb(254, 253, 0)"/>
      <stop offset="0.7783" id="svg_75" stop-color="rgb(254, 254, 38)"/>
      <stop offset="0.8369" id="svg_74" stop-color="rgb(255, 254, 84)"/>
      <stop offset="0.889" id="svg_73" stop-color="rgb(255, 255, 118)"/>
      <stop offset="0.932" id="svg_72" stop-color="rgb(255, 255, 139)"/>
      <stop offset="0.9607" id="svg_71" stop-color="rgb(255, 255, 146)"/>
     </linearGradient>
     <path d="m94.463997,17.483c0,0 18.110001,3.775 18.290001,32.509001c0.126999,20.338001 3.140999,7.634998 6.131004,3.063999c2.577995,-3.947998 0.815987,-8.759998 0.753998,-8.748001c-0.010002,0.003002 -1.305,-3.743 -0.431999,-2.155998c0.039001,0.07 -1.216003,-1.034 -1.207001,-1.035c0.200996,-0.029999 -0.696999,-20.652 -23.536003,-23.634001z" id="svg_69" fill="url(#svg_70)"/>
     <linearGradient x1="0.076445" y1="0.697143" x2="0.740427" y2="0.262128" id="svg_61">
      <stop offset="0" id="svg_68" stop-color="rgb(247, 154, 9)"/>
      <stop offset="0.736" id="svg_67" stop-color="rgb(254, 253, 0)"/>
      <stop offset="0.7783" id="svg_66" stop-color="rgb(254, 254, 38)"/>
      <stop offset="0.8369" id="svg_65" stop-color="rgb(255, 254, 84)"/>
      <stop offset="0.889" id="svg_64" stop-color="rgb(255, 255, 118)"/>
      <stop offset="0.932" id="svg_63" stop-color="rgb(255, 255, 139)"/>
      <stop offset="0.9607" id="svg_62" stop-color="rgb(255, 255, 146)"/>
     </linearGradient>
     <path d="m114.857002,21.375999c0,0 6.504997,16.945 -0.389,25.371002c-2.25,2.75 -2.501999,16.838997 0.246986,15.544998c2.756004,-1.296001 2.157013,7.481003 1.796013,8.480003c-0.008003,0.018997 -0.010002,0.028 -0.006004,0.030998c0.18,0.111 13.592003,-21.66 -1.647987,-49.427002l-0.000008,0z" id="svg_60" fill="url(#svg_61)"/>
     <linearGradient x1="0.572499" y1="0.778201" x2="0.406909" y2="0.190842" id="svg_52">
      <stop offset="0" id="svg_59" stop-color="rgb(247, 154, 9)"/>
      <stop offset="0.736" id="svg_58" stop-color="rgb(254, 253, 0)"/>
      <stop offset="0.7783" id="svg_57" stop-color="rgb(254, 254, 38)"/>
      <stop offset="0.8369" id="svg_56" stop-color="rgb(255, 254, 84)"/>
      <stop offset="0.889" id="svg_55" stop-color="rgb(255, 255, 118)"/>
      <stop offset="0.932" id="svg_54" stop-color="rgb(255, 255, 139)"/>
      <stop offset="0.9607" id="svg_53" stop-color="rgb(255, 255, 146)"/>
     </linearGradient>
     <path d="m105.814003,39.215c0,0 4.094986,11.988998 -0.193001,20.560001l3.243996,7.244995c2.379013,-5.843998 5.408005,-18.202995 -3.050987,-27.804996l-0.000008,0z" id="svg_51" fill="url(#svg_52)"/>
     <linearGradient x1="0.341086" y1="0.71367" x2="0.857239" y2="0.273822" id="svg_43">
      <stop offset="0" id="svg_50" stop-color="rgb(247, 154, 9)"/>
      <stop offset="0.736" id="svg_49" stop-color="rgb(254, 253, 0)"/>
      <stop offset="0.7783" id="svg_48" stop-color="rgb(254, 254, 38)"/>
      <stop offset="0.8369" id="svg_47" stop-color="rgb(255, 254, 84)"/>
      <stop offset="0.889" id="svg_46" stop-color="rgb(255, 255, 118)"/>
      <stop offset="0.932" id="svg_45" stop-color="rgb(255, 255, 139)"/>
      <stop offset="0.9607" id="svg_44" stop-color="rgb(255, 255, 146)"/>
     </linearGradient>
     <path d="m113.015999,37.789001c0,0 2.832001,19.029999 -7.387001,36.208c0.158005,3.973 -0.539001,7.569 -1.495987,10.531998c0.445,0.585999 1.041,0.987 1.826996,1.056999c-0.347,0.32 -0.691994,0.620003 -1.025993,0.903999c-0.614006,0.271004 -1.243004,0.557999 -1.852005,0.853004c-0.129997,0.303001 -0.261002,0.597 -0.389,0.878998c0.68,-0.476997 1.438004,-1.056 2.240005,-1.731003c2.086998,-0.921997 3.964996,-1.638 3.960999,-1.641998c0,0 -0.383003,0.142998 -1.302994,0.478004c-0.618996,0.224998 -1.159996,0.300987 -1.631996,0.258995c7.891998,-7.192001 18.706001,-23.274998 7.056999,-47.796997l-0.000023,0zm-11.906998,50.589996c-0.902,0.528999 -1.557999,1.025002 -1.697998,1.408005c-0.103004,0.278999 0.511986,0.117996 1.574997,-0.479004c0.055,-0.319 0.099998,-0.631996 0.123001,-0.929001z" id="svg_42" fill="url(#svg_43)"/>
     <linearGradient x1="0.502021" y1="0.798373" x2="0.49223" y2="0.253803" id="svg_34">
      <stop offset="0" id="svg_41" stop-color="rgb(222, 92, 1)"/>
      <stop offset="0.736" id="svg_40" stop-color="rgb(254, 253, 0)"/>
      <stop offset="0.7783" id="svg_39" stop-color="rgb(254, 254, 38)"/>
      <stop offset="0.8369" id="svg_38" stop-color="rgb(255, 254, 84)"/>
      <stop offset="0.889" id="svg_37" stop-color="rgb(255, 255, 118)"/>
      <stop offset="0.932" id="svg_36" stop-color="rgb(255, 255, 139)"/>
      <stop offset="0.9607" id="svg_35" stop-color="rgb(255, 255, 146)"/>
     </linearGradient>
     <path d="m100.412003,58.064999c0,0 8.056999,22.932003 -17.693001,44.432003c-1.519005,1.268997 10.451996,0.725998 11.5,0.25c3.085999,-1.402 6.733002,-10.757004 6.303001,-9.637001c-0.427002,1.118996 11.956985,-16.536003 -0.110001,-35.045002z" id="svg_33" fill="url(#svg_34)"/>
     <linearGradient x1="0.226705" y1="0.895985" x2="0.915801" y2="0.279224" id="svg_18">
      <stop offset="0" id="svg_32" stop-color="rgb(185, 18, 13)"/>
      <stop offset="0.078" id="svg_31" stop-color="rgb(187, 24, 13)"/>
      <stop offset="0.1822" id="svg_30" stop-color="rgb(192, 41, 12)"/>
      <stop offset="0.3013" id="svg_29" stop-color="rgb(200, 69, 10)"/>
      <stop offset="0.4314" id="svg_28" stop-color="rgb(211, 108, 8)"/>
      <stop offset="0.5706" id="svg_27" stop-color="rgb(226, 158, 5)"/>
      <stop offset="0.7151" id="svg_26" stop-color="rgb(244, 218, 2)"/>
      <stop offset="0.7921" id="svg_25" stop-color="rgb(254, 253, 0)"/>
      <stop offset="0.8136" id="svg_24" stop-color="rgb(254, 253, 7)"/>
      <stop offset="0.8455" id="svg_23" stop-color="rgb(254, 253, 27)"/>
      <stop offset="0.8837" id="svg_22" stop-color="rgb(254, 254, 60)"/>
      <stop offset="0.9268" id="svg_21" stop-color="rgb(255, 254, 105)"/>
      <stop offset="0.9736" id="svg_20" stop-color="rgb(255, 255, 163)"/>
      <stop offset="1" id="svg_19" stop-color="rgb(255, 255, 199)"/>
     </linearGradient>
     <path d="m111.68,72.610001c0,0 -4.860001,29.743996 -38.460999,32.137001c-13.157001,0.937996 -32.048,-2.140999 -30.375,2.876999c0.518997,1.556 2.991997,8.042999 8.635998,9.547997c15.274998,4.075005 55.914997,2.741005 60.200001,-44.561996z" id="svg_17" fill="url(#svg_18)"/>
    </g>
    <g id="svg_3">
     <linearGradient x1="0.401591" y1="0.57273" x2="1.402849" y2="1.311529" id="svg_13">
      <stop offset="0.0562" id="svg_15" stop-color="rgb(222, 114, 16)"/>
      <stop offset="1" id="svg_14" stop-color="rgb(246, 192, 143)"/>
     </linearGradient>
     <path d="m83.656998,95.119003c0,0 -20.558998,4.696999 -33.877998,-6.641014c-12.187,-10.376999 -6.140999,-1.642998 -4.487999,2.665001c1.697998,4.417999 -7.853001,1.042 -9.289001,0.332001c-1.431,-0.701004 22.623001,14.384003 47.654999,3.643997l0,0.000015z" id="svg_12" fill="url(#svg_13)"/>
     <linearGradient x1="0.330674" y1="0.38631" x2="1.49986" y2="1.286164" id="svg_9">
      <stop offset="0.0562" id="svg_11" stop-color="rgb(222, 114, 16)"/>
      <stop offset="1" id="svg_10" stop-color="rgb(246, 192, 143)"/>
     </linearGradient>
     <path d="m70.407997,106.324997c0,0 -24.524998,-4.82 -32.289997,-21.437996c-6.635,-14.196999 -4.879002,-3.778999 -5.178001,0.961998c-0.313999,4.876999 -7.190998,-1.782997 -8.109999,-2.942001c-0.025999,-0.028 -0.044001,-0.046997 -0.046,-0.042c-0.137001,0.090004 12.648998,20.134003 45.623997,23.459999z" id="svg_8" fill="url(#svg_9)"/>
     <linearGradient x1="0.228504" y1="0.227849" x2="1.528514" y2="1.911591" id="svg_5">
      <stop offset="0.0562" id="svg_7" stop-color="rgb(222, 114, 16)"/>
      <stop offset="1" id="svg_6" stop-color="rgb(246, 192, 143)"/>
     </linearGradient>
     <path d="m43.617001,104.176003c0,0 -11.714001,-9.073013 -16.995001,-21.514c-4.438,-1.542 -10.338999,-5.067001 -10.455999,-5.670013c1.875,9.667 11.746,20.954002 27.451,27.184013z" id="svg_4" fill="url(#svg_5)"/>
    </g>
   </g>
  </symbol>
  <pattern height="100" width="100" y="0" x="0" patternUnits="userSpaceOnUse" id="gridpattern">
   <image height="100" width="100" y="0" x="0"/>
  </pattern>
 </defs>
 <g>
  <title>Layer 1</title>
  <use id="svg_343" xlink:href="#svg_342" transform="matrix(0.4795604213034723,0,0,0.39577743129619336,100.18082774995186,272.9758227445432) " y="-172.22394" x="-2.04705"/>
  <line fill="none" stroke="#000000" stroke-width="5" x1="143.11317" y1="76.40379" x2="134.31528" y2="76.40379" id="svg_344"/>
  <line fill="none" stroke-width="5" x1="190.52057" y1="123.81119" x2="181.72269" y2="123.81119" id="svg_345" stroke="#000000" transform="rotate(-15.727123260498047 186.12162780761716,123.81119537353521) "/>
  <polygon id="svg_346" fill="none" points="310.27299438523454,132.40456402505018 319.8056561575371,159.82881291946504 348.83342126234044,160.42035404930854 325.6971651360769,177.96101311183716 334.10464881599097,205.75085453023883 310.27299438523454,189.16732912154052 286.44133995447817,205.75085453023883 294.8488236343922,177.96101311183716 271.71256750812864,160.42035404930854 300.740332612932,159.82881291946507 310.27299438523454,132.40456402505018 319.8056561575371,159.82881291946504 " stroke="#000000" stroke-width="5"/>
  <polygon id="svg_347" fill="none" points="116.7195110988189,154.2203392261227 128.34546002655728,187.66670757986324 163.7474623901966,188.38814584427323 135.53069161537,209.78057655154373 145.78438341816482,243.67281827347438 116.7195110988189,223.44769919880395 87.65463877947298,243.67281827347438 97.90833058226781,209.78057655154373 69.6915598074412,188.38814584427323 105.09356217108052,187.66670757986327 116.71951109881888,154.2203392261227 128.34546002655728,187.66670757986324 " stroke="#000000" stroke-width="5"/>
  <polygon id="svg_348" fill="none" points="233.29149535086458,160.9325104277484 252.62536843115868,216.55359088898692 311.4986547960958,217.75333775920504 264.5743591289571,253.32880284546124 281.6261780515998,309.6913676503909 233.29149535086458,276.05713377804386 184.9568126501293,309.6913676503909 202.0086315727721,253.32880284546124 155.08433590563334,217.75333775920504 213.95762227057048,216.55359088898692 233.29149535086455,160.9325104277484 252.62536843115868,216.5535908889869 " stroke="#000000" stroke-width="5"/>
  <polygon id="svg_349" fill="none" points="396.05237902353247,121.31424078648092 431.9235494780632,224.51101102512695 541.1543115527118,226.73696566469414 454.0931520352042,292.7420318409582 485.73030515985926,397.31451770427225 396.05237902353247,334.9111217922435 306.3744528872057,397.31451770427225 338.01160601186075,292.7420318409582 250.9504464943532,226.73696566469417 360.18120856900174,224.51101102512695 396.05237902353247,121.31424078648092 431.92354947806314,224.51101102512695 " stroke="#000000" stroke-width="5"/>
  <polygon id="svg_350" fill="none" points="66.13166887623288,227.00587533992922 91.59821275356886,300.2698654462208 169.14600280003322,301.85016992971555 107.33740244575301,348.71011045033447 129.7980285695728,422.95078243999967 66.13166887623288,378.647828286249 2.465309182892952,422.95078243999967 24.925935306712738,348.71011045033447 -36.88266504756747,301.85016992971555 40.6651249988969,300.2698654462208 66.13166887623287,227.00587533992922 91.59821275356884,300.2698654462208 " stroke="#000000" stroke-width="5"/>
  <polygon id="svg_351" fill="none" points="83.72744008408881,26.026681146699218 86.28575795293948,33.386634500991256 94.07605324865524,33.54538871663288 87.86688534991539,38.25284426084077 90.12323475621548,45.710913116256656 83.72744008408881,41.26032728881423 77.33164541196214,45.710913116256656 79.58799481826223,38.25284426084077 73.37882691952238,33.54538871663288 81.16912221523815,33.386634500991256 83.72744008408881,26.026681146699218 86.28575795293948,33.386634500991256 " stroke="#000000" stroke-width="5"/>
  <polygon id="svg_352" fill="#ffff00" points="474.9240531921387,90.4639892578125 495.0884208679199,133.78866577148438 556.4904594421387,134.72317504882812 507.5506401062012,162.433837890625 525.3348808288574,206.33609008789062 474.9240531921387,180.13751220703125 424.5132255554199,206.33609008789062 442.2974662780762,162.433837890625 393.35761642456055,134.72317504882812 454.75971603393555,133.78866577148438 474.9240531921387,90.4639892578125 495.0884208679199,133.78866577148438 " stroke-width="5" stroke="#000000"/>
  <polygon id="svg_353" fill="none" points="183.80339813232422,65.84900665283203 197.8653793334961,88.40202331542969 240.68538665771484,88.88849258422852 206.55620574951172,103.31349182128906 218.9583969116211,126.16716003417969 183.80339813232422,112.5292854309082 148.64836883544922,126.16716003417969 161.05059051513672,103.31349182128906 126.92137908935547,88.88849258422852 169.74138641357422,88.40202331542969 183.80339813232422,65.84900665283203 197.8653793334961,88.40202331542969 " stroke-width="5" stroke="#000000"/>
 </g>
</svg>